<?xml version="1.0" encoding="utf-8"?>
<!-- Generator: Adobe Illustrator 21.0.0, SVG Export Plug-In . SVG Version: 6.00 Build 0)  -->
<svg version="1.1" id="Layer_1" xmlns="http://www.w3.org/2000/svg" xmlns:xlink="http://www.w3.org/1999/xlink" x="0px" y="0px"
	 viewBox="0 0 192 192" style="enable-background:new 0 0 192 192;" xml:space="preserve">
<style type="text/css">
	.st0{fill:none;}
	.st1{fill:#F4481E;}
	.st2{fill:url(#SVGID_1_);}
	.st3{opacity:0.1;fill:#FFFFFF;enable-background:new    ;}
	.st4{fill:#FFD119;}
	.st5{fill:#FF8C00;}
	.st6{fill:url(#SVGID_2_);}
	.st7{fill:#FAFAFA;}
	.st8{opacity:0.3;fill:#FFFFFF;enable-background:new    ;}
</style>
<rect class="st0" width="192" height="192"/>
<rect class="st0" width="192" height="192"/>
<path class="st1" d="M170.8,86.1L37.4,10.3c-5.7-3.2-10.8-2.9-13.9,0.1l0,0c-2.2,2.1-3.4,5.5-3.4,9.9v151.3c0,4.4,1.3,7.8,3.4,9.9
	l0,0c3.2,3.1,8.2,3.4,13.9,0.1l133.4-75.8C180.4,100.4,180.4,91.6,170.8,86.1z"/>
<linearGradient id="SVGID_1_" gradientUnits="userSpaceOnUse" x1="99.05" y1="10.3334" x2="99.05" y2="186.062" gradientTransform="matrix(1 0 0 -1 0 194)">
	<stop  offset="0" style="stop-color:#FFFFFF;stop-opacity:0"/>
	<stop  offset="1" style="stop-color:#FFFFFF;stop-opacity:0.1"/>
</linearGradient>
<path class="st2" d="M170.8,86.1L37.4,10.3c-5.7-3.2-10.8-2.9-13.9,0.1l0,0c-2.2,2.1-3.4,5.5-3.4,9.9v151.3c0,4.4,1.3,7.8,3.4,9.9
	l0,0c3.2,3.1,8.2,3.4,13.9,0.1l133.4-75.8C180.4,100.4,180.4,91.6,170.8,86.1z"/>
<path class="st3" d="M170.8,87.1L37.4,11.3C27.8,5.9,20,10.4,20,21.3v-1c0-11,7.8-15.5,17.4-10l133.4,75.8c5,2.8,7.4,6.6,7.1,10.4
	C177.7,93.1,175.4,89.7,170.8,87.1z"/>
<path class="st4" d="M157.6,113.4c1.6-5.5,2.4-11.4,2.4-17.4c0-35.3-28.7-64-64-64S32,60.7,32,96c0,29.6,20.1,54.5,47.4,61.8
	L157.6,113.4z"/>
<circle class="st5" cx="96" cy="96" r="40"/>
<linearGradient id="SVGID_2_" gradientUnits="userSpaceOnUse" x1="104.3082" y1="83.5944" x2="119.2326" y2="57.7446" gradientTransform="matrix(1 0 0 -1 0 194)">
	<stop  offset="0" style="stop-color:#991700;stop-opacity:0"/>
	<stop  offset="1" style="stop-color:#991700;stop-opacity:0.1"/>
</linearGradient>
<path class="st6" d="M96,32c-35.3,0-64,28.7-64,64c0,29.6,20.1,54.5,47.4,61.8l78.2-44.4c1.6-5.5,2.4-11.4,2.4-17.4
	C160,60.7,131.3,32,96,32z"/>
<g>
	
		<image style="overflow:visible;opacity:0.15;enable-background:new    ;" width="47" height="60" xlink:href="21B57F91.png"  transform="matrix(1 0 0 1 75 68)">
	</image>
	<path class="st7" d="M96,75v24.6c-1.4-0.8-3-1.3-4.7-1.3c-5.2,0-9.3,4.2-9.3,9.3c0,5.2,4.2,9.3,9.3,9.3c5.2,0,9.7-4.2,9.7-9.3V85h9
		V75H96z"/>
</g>
<path class="st8" d="M96,33c35.2,0,63.8,28.4,64,63.6c0-0.2,0-0.4,0-0.6c0-35.3-28.7-64-64-64S32,60.7,32,96c0,0.2,0,0.4,0,0.5
	C32.3,61.4,60.8,33,96,33z"/>
</svg>
